<svg width="390" height="844" viewBox="0 0 390 844" fill="none" xmlns="http://www.w3.org/2000/svg">
<g clip-path="url(#clip0_101_501)">
<rect width="390" height="844" fill="white"/>
<path class="clickable-zone" d="M109 96.5H1L0.5 338.5H58L140.5 102.5L109 96.5Z" fill="#FFD644"/>   <!-- zone jaune haut gauche -->
<path class="clickable-zone" d="M109 748.5H1L0.5 506.5H58L140.5 742.5L109 748.5Z" fill="#FFD644"/> <!-- zone jaune bas gauche -->
<path class="clickable-zone" d="M319.5 278.5L319 279L318.5 279.5L235 350.5V338H60.5H58.5H58L140.5 102C147.833 104.167 162.5 108.6 162.5 109C162.5 109.4 173.167 113.167 178.5 115L200 127C205.833 130.667 217.4 138 217 138C216.6 138 229.5 147.667 236 152.5L254.5 171L275 195.5L291.5 219L304 242.5L315 264L319.5 278.5Z" fill="#FF9900"/> <!-- zone orange haut droite -->
<path class="clickable-zone" d="M319.5 570L319 569.5L318.5 569L235 498V510.5H60.5H58.5H58L140.5 746.5C147.833 744.333 162.5 739.9 162.5 739.5C162.5 739.1 173.167 735.333 178.5 733.5L200 721.5C205.833 717.833 217.4 710.5 217 710.5C216.6 710.5 229.5 700.833 236 696L254.5 677.5L275 653L291.5 629.5L304 606L315 584.5L319.5 570Z" fill="#FF9900"/> <!-- zone orange bas droite -->
<path class="clickable-zone" d="M141 0.5V102.5L154 105.5L169 111.5L183.5 118L199 126L216.5 137.5L234 151.5L249 165L264.5 182L272 191.5L280 203L294 223.5L303.5 241L313.5 261L320.5 278L389 218.5V0.5H141Z" fill="#E22B2B"/> <!-- zone rouge haut droite -->
<path class="clickable-zone" d="M141 844.5V742.5L154 739.5L169 733.5L183.5 727L199 719L216.5 707.5L234 693.5L249 680L264.5 663L272 653.5L280 642L294 621.5L303.5 604L313.5 584L320.5 567L389 626.5V844.5H141Z" fill="#E22B2B"/> <!-- zone rouge bas droite -->
<path class="clickable-zone" d="M141 0V101.5L124 99L104 96.5H1.5V0H141Z" fill="#F18F8F"/> <!-- zone rose haut gauche -->
<path class="clickable-zone" d="M141 844.5V743L124 745.5L104 748H1.5V844.5H141Z" fill="#F18F8F"/> <!-- zone rose bas gauche -->
<path class="clickable-zone" d="M390 218L235 350L235.508 499L390 631V218Z" fill="#888888"/>  <!-- zone grise milieux droite -->
<line x1="-1" y1="0.5" x2="389" y2="0.5" stroke="black" stroke-width="3"/>
<line y1="842.5" x2="390" y2="842.5" stroke="black" stroke-width="3"/>
<line x1="0.5" y1="-1" x2="0.499983" y2="843" stroke="black" stroke-width="3"/>
<line x1="1" y1="96.5" x2="98" y2="96.5" stroke="black" stroke-width="3"/>
<line x1="1" y1="748.5" x2="98" y2="748.5" stroke="black" stroke-width="3"/>
<line x1="19.5" y1="384" x2="19.5" y2="468" stroke="black" stroke-width="3"/>
<line x1="32" y1="423.5" x2="21" y2="423.5" stroke="black" stroke-width="3"/>
<line x1="32" y1="428.5" x2="21" y2="428.5" stroke="black" stroke-width="3"/>
<path d="M97.9636 96.5507C164.142 98.056 227.319 132.943 273.849 193.887C320.385 254.838 346.499 336.93 346.5 422.496C346.501 508.062 320.388 590.155 273.853 651.107C227.324 712.052 164.148 746.942 97.9699 748.449" stroke="black" stroke-width="3"/>
<rect class="clickable-zone" x="0.5" y="338.5" width="233" height="173" fill="#FF0000" stroke="black" stroke-width="3"/> <!-- zone rouge milieux -->
<mask id="path-20-inside-1_101_501" fill="white">
<path d="M232.5 513C255.706 513 277.962 503.729 294.372 487.225C310.781 470.722 320 448.339 320 425C320 401.661 310.781 379.278 294.372 362.775C277.962 346.271 255.706 337 232.5 337L232.5 425L232.5 513Z"/>
</mask>
<path d="M232.5 513C255.706 513 277.962 503.729 294.372 487.225C310.781 470.722 320 448.339 320 425C320 401.661 310.781 379.278 294.372 362.775C277.962 346.271 255.706 337 232.5 337L232.5 425L232.5 513Z" stroke="black" stroke-width="6" mask="url(#path-20-inside-1_101_501)"/>
<mask id="path-21-inside-2_101_501" fill="white">
<path d="M235.5 337C212.294 337 190.038 346.271 173.628 362.775C157.219 379.278 148 401.661 148 425C148 448.339 157.219 470.722 173.628 487.225C190.038 503.729 212.294 513 235.5 513L235.5 425L235.5 337Z"/>
</mask>
<path d="M235.5 337C212.294 337 190.038 346.271 173.628 362.775C157.219 379.278 148 401.661 148 425C148 448.339 157.219 470.722 173.628 487.225C190.038 503.729 212.294 513 235.5 513L235.5 425L235.5 337Z" stroke="black" stroke-width="6" stroke-dasharray="6 6" mask="url(#path-21-inside-2_101_501)"/>
<circle cx="44" cy="426" r="11.5" stroke="black" stroke-width="3"/>
<path d="M140.5 102L58 338.5" stroke="black"/>
<path d="M139 743L58 510" stroke="black"/>
<line x1="32.5" y1="396" x2="32.5" y2="458" stroke="black" stroke-width="3"/>
</g>
<defs>
<clipPath id="clip0_101_501">
<rect width="390" height="844" fill="white"/>
</clipPath>
</defs>
</svg>
