<svg width="198" height="76" viewBox="0 0 198 76" fill="none" xmlns="http://www.w3.org/2000/svg">
<path d="M9.379 60H2.739C1.96433 60 1.30033 59.751 0.747 59.253C0.249 58.6997 0 58.0357 0 57.261V17.836C0 17.0613 0.249 16.3973 0.747 15.844C1.30033 15.2907 1.96433 15.014 2.739 15.014H9.379C10.1537 15.014 10.79 15.2907 11.288 15.844C11.8413 16.3973 12.118 17.0613 12.118 17.836V37.009H6.557V20.575H5.561V54.439H6.557V38.005H12.118V57.261C12.118 58.0357 11.8413 58.6997 11.288 59.253C10.79 59.751 10.1537 60 9.379 60ZM25.2489 60H15.8699C15.0952 60 14.4312 59.751 13.8779 59.253C13.3799 58.6997 13.1309 58.0357 13.1309 57.261V37.507C13.1309 36.7323 13.3799 36.096 13.8779 35.598C14.4312 35.0447 15.0952 34.768 15.8699 34.768H19.6879V20.575H18.6919V33.772H13.1309V17.836C13.1309 17.0613 13.3799 16.3973 13.8779 15.844C14.4312 15.2907 15.0952 15.014 15.8699 15.014H22.5099C23.2845 15.014 23.9209 15.2907 24.4189 15.844C24.9722 16.3973 25.2489 17.0613 25.2489 17.836V60ZM18.6919 54.439H19.6879V40.329H18.6919V54.439ZM38.3797 60H32.8187V20.575H31.8227V60H26.2617V15.014H35.6407C36.4154 15.014 37.0517 15.2907 37.5497 15.844C38.1031 16.342 38.3797 16.9783 38.3797 17.753V60ZM52.515 15.014H58.076V70.375C58.076 71.1497 57.7993 71.786 57.246 72.284C56.6927 72.8373 56.0287 73.114 55.254 73.114H48.697C47.9223 73.114 47.2583 72.8373 46.705 72.284C46.207 71.786 45.958 71.1497 45.958 70.375V60.996H51.519V67.553H52.515V60H48.697C47.9223 60 47.2583 59.751 46.705 59.253C46.207 58.6997 45.958 58.0357 45.958 57.261V15.014H51.519V54.439H52.515V15.014ZM71.2069 57.261C71.2069 58.0357 70.9302 58.6997 70.3769 59.253C69.8235 59.751 69.1595 60 68.3849 60H61.8279C61.0532 60 60.3892 59.751 59.8359 59.253C59.3379 58.6997 59.0889 58.0357 59.0889 57.261V17.836C59.0889 17.0613 59.3379 16.3973 59.8359 15.844C60.3892 15.2907 61.0532 15.014 61.8279 15.014H68.3849C69.1595 15.014 69.8235 15.2907 70.3769 15.844C70.9302 16.3973 71.2069 17.0613 71.2069 17.836V57.261ZM65.6459 20.575H64.6499V54.439H65.6459V20.575ZM78.7767 15.014H84.3377V57.261C84.3377 58.0357 84.0611 58.6997 83.5077 59.253C82.9544 59.751 82.2904 60 81.5157 60H74.9587C74.1841 60 73.5201 59.751 72.9667 59.253C72.4687 58.6997 72.2197 58.0357 72.2197 57.261V15.014H77.7807V54.439H78.7767V15.014ZM120.991 60H114.351C113.577 60 112.913 59.751 112.359 59.253C111.861 58.6997 111.612 58.0357 111.612 57.261V41.325H117.173V54.439H118.169V40.329H114.351C113.577 40.329 112.913 40.0523 112.359 39.499C111.861 38.9457 111.612 38.2817 111.612 37.507V17.836C111.612 17.0613 111.861 16.3973 112.359 15.844C112.913 15.2907 113.577 15.014 114.351 15.014H120.991C121.766 15.014 122.402 15.2907 122.9 15.844C123.454 16.3973 123.73 17.0613 123.73 17.836V33.772H118.169V20.575H117.173V34.768H120.991C121.766 34.768 122.402 35.0447 122.9 35.598C123.454 36.096 123.73 36.7323 123.73 37.507V57.261C123.73 58.0357 123.454 58.6997 122.9 59.253C122.402 59.751 121.766 60 120.991 60ZM134.122 60H127.482C126.707 60 126.043 59.751 125.49 59.253C124.992 58.6997 124.743 58.0357 124.743 57.261V17.836C124.743 17.0613 124.992 16.3973 125.49 15.844C126.043 15.2907 126.707 15.014 127.482 15.014H134.122C134.897 15.014 135.533 15.2907 136.031 15.844C136.584 16.3973 136.861 17.0613 136.861 17.836V37.009H131.3V20.575H130.304V54.439H131.3V38.005H136.861V57.261C136.861 58.0357 136.584 58.6997 136.031 59.253C135.533 59.751 134.897 60 134.122 60ZM149.992 57.261C149.992 58.0357 149.715 58.6997 149.162 59.253C148.609 59.751 147.945 60 147.17 60H140.613C139.838 60 139.174 59.751 138.621 59.253C138.123 58.6997 137.874 58.0357 137.874 57.261V17.836C137.874 17.0613 138.123 16.3973 138.621 15.844C139.174 15.2907 139.838 15.014 140.613 15.014H147.17C147.945 15.014 148.609 15.2907 149.162 15.844C149.715 16.3973 149.992 17.0613 149.992 17.836V57.261ZM144.431 20.575H143.435V54.439H144.431V20.575ZM156.566 60H151.005V15.014H160.384C161.159 15.014 161.795 15.2907 162.293 15.844C162.846 16.3973 163.123 17.0613 163.123 17.836V33.772H157.562V20.575H156.566V60ZM173.515 60H166.875C166.1 60 165.436 59.751 164.883 59.253C164.385 58.6997 164.136 58.0357 164.136 57.261V17.836C164.136 17.0613 164.385 16.3973 164.883 15.844C165.436 15.2907 166.1 15.014 166.875 15.014H173.515C174.289 15.014 174.926 15.2907 175.424 15.844C175.977 16.3973 176.254 17.0613 176.254 17.836V40.329H169.697V54.439H170.693V41.325H176.254V57.261C176.254 58.0357 175.977 58.6997 175.424 59.253C174.926 59.751 174.289 60 173.515 60ZM169.697 34.768H170.693V20.575H169.697V34.768Z" fill="black"/>
<rect x="76" y="20.6488" width="36.4906" height="36.4906" rx="18.2453" transform="rotate(-10.4982 76 20.6488)" fill="#FF3115"/>
<circle cx="97.105" cy="34.9583" r="15" stroke="black" stroke-width="2"/>
<line x1="85.9644" y1="46.1456" x2="108.374" y2="23.7362" stroke="black" stroke-width="2"/>
<line x1="85.9018" y1="22.7362" x2="108.311" y2="45.1456" stroke="black" stroke-width="2"/>
<path d="M81.105 33.937C89.0775 38.2017 98.189 28.2507 94.0888 19.9583" stroke="black" stroke-width="2"/>
<path d="M112.987 36.1942C104.727 31.7442 95.0009 41.5726 99.1316 49.9971" stroke="black" stroke-width="2"/>
</svg>
