<svg xmlns="http://www.w3.org/2000/svg" fill="#FF3115" xmlns:xlink="http://www.w3.org/1999/xlink" version="1.1" x="0px" y="0px" viewBox="0 0 100 125" enable-background="new 0 0 100 100" xml:space="preserve">
  <g>
    <path d="M78.975,41.62H22.004c-1.693,0-3.07-1.377-3.07-3.07V3.07c0-1.693,1.377-3.07,3.07-3.07h56.971   c1.693,0,3.07,1.377,3.07,3.07v35.479C82.045,40.242,80.668,41.62,78.975,41.62z M22.345,38.208h56.289V3.412H22.345V38.208z"/>
    <path d="M53.56,100c-0.05,0-0.098,0-0.143,0l-0.134-0.001L47.221,100c-0.501,0.004-1.358,0.012-2.036-0.66   c-0.304-0.301-0.666-0.845-0.666-1.729V39.914c0-0.942,0.763-1.706,1.706-1.706c0.942,0,1.706,0.764,1.706,1.706v56.673h4.776   V39.914c0-0.942,0.764-1.706,1.706-1.706s1.706,0.764,1.706,1.706V97.61c0,0.885-0.362,1.429-0.666,1.729   C54.835,99.952,54.074,100,53.56,100z"/>
    <path d="M61.235,28.315c-0.942,0-1.706-0.764-1.706-1.706V13.646H40.767v12.963c0,0.942-0.764,1.706-1.706,1.706   c-0.942,0-1.706-0.764-1.706-1.706V13.305c0-1.693,1.377-3.07,3.07-3.07h19.445c1.692,0,3.069,1.377,3.069,3.07v13.305   C62.94,27.551,62.178,28.315,61.235,28.315z"/>
    <path d="M61.71,34.483H38.473c-0.817,0-1.316-0.331-1.592-0.608c-0.658-0.663-0.65-1.559-0.645-2.279l0.001-1.672   l-0.001-0.22c-0.005-0.72-0.013-1.616,0.645-2.278c0.275-0.277,0.775-0.608,1.592-0.608H61.71c0.817,0,1.317,0.331,1.593,0.609   c0.657,0.662,0.649,1.558,0.645,2.277l-0.002,1.674l0.002,0.221c0.005,0.719,0.013,1.615-0.645,2.277   C63.027,34.152,62.527,34.483,61.71,34.483z M38.964,31.754l22.255,0c0-0.047-0.001-0.093-0.001-0.135l-0.001-1.695l0.001-0.243   c0-0.042,0.001-0.088,0.001-0.135l-22.255,0c0,0.047,0,0.094,0,0.137l0.001,1.694l-0.001,0.241   C38.964,31.661,38.964,31.707,38.964,31.754z"/>
    <path d="M46.273,49.129c-0.753,0-1.365-0.611-1.365-1.365c0-5.403-1.307-9.861-2.585-13.51   c-0.249-0.711,0.125-1.49,0.837-1.739c0.711-0.25,1.489,0.125,1.739,0.837c1.354,3.865,2.739,8.599,2.739,14.412   C47.638,48.518,47.026,49.129,46.273,49.129z"/>
    <path d="M58.488,51.172c-0.753,0-1.364-0.611-1.364-1.365c0-10.138,4.1-17.437,4.274-17.743   c0.374-0.654,1.208-0.882,1.861-0.508c0.655,0.374,0.883,1.207,0.51,1.861c-0.071,0.126-3.916,7.046-3.916,16.39   C59.854,50.561,59.242,51.172,58.488,51.172z"/>
    <path d="M41.791,51.176c-0.754,0-1.365-0.611-1.365-1.364c0-9.422-3.876-16.321-3.916-16.39   c-0.373-0.654-0.146-1.488,0.509-1.861c0.654-0.374,1.488-0.146,1.862,0.508c0.174,0.306,4.274,7.604,4.274,17.743   C43.155,50.565,42.544,51.176,41.791,51.176z"/>
    <path d="M54.366,49.807c-0.754,0-1.365-0.611-1.365-1.364c0-6.139,1.512-11.084,2.99-15.111   c0.26-0.708,1.044-1.071,1.751-0.811c0.708,0.26,1.07,1.044,0.812,1.751c-1.396,3.802-2.823,8.459-2.823,14.171   C55.73,49.196,55.119,49.807,54.366,49.807z"/>
    <path d="M50.319,50.489c-0.754,0-1.365-0.611-1.365-1.365v-9.211l-0.227-6.749c-0.025-0.753,0.565-1.384,1.318-1.41   c0.773-0.013,1.385,0.565,1.41,1.318l0.228,6.795l0.001,9.256C51.684,49.878,51.072,50.489,50.319,50.489z"/>
  </g>
</svg>
