<svg width="274" height="629" viewBox="0 0 274 629" fill="none" xmlns="http://www.w3.org/2000/svg">
<g filter="url(#filter0_dd_1033_10)">
<path d="M47.9828 91.9341L34.5252 105.578C34.2459 105.862 34.0574 106.222 33.9837 106.612L26.3256 147.236C26.2023 147.89 26.4126 148.563 26.8866 149.03L48.6383 170.485C49.016 170.857 49.5261 171.064 50.0565 171.061L66.2662 170.949C67.0645 170.944 67.7896 171.413 68.1109 172.144L87.8735 217.104C88.017 217.43 88.0706 217.789 88.0288 218.143L85.5672 239.002C85.5179 239.42 85.3377 239.812 85.0525 240.122L73.0003 253.215C72.8275 253.402 72.6922 253.622 72.6017 253.86L51.1577 310.411C51.1235 310.501 51.0958 310.594 51.075 310.688L37.2104 373.328C37.0088 374.239 36.2043 374.889 35.2715 374.895L7.27304 375.088C6.82575 375.091 6.3924 375.244 6.04225 375.523L-26.1451 401.11C-26.7767 401.612 -27.6481 401.686 -28.3548 401.296L-49.1288 389.85C-49.7958 389.483 -50.6137 389.526 -51.2383 389.962L-78.7702 409.17C-79.2023 409.472 -79.498 409.932 -79.5931 410.45L-82.9563 428.793C-82.9739 428.889 -82.9985 428.984 -83.03 429.076L-97.1078 470.466C-97.2787 470.969 -97.2428 471.519 -97.0079 471.995L-82.8564 500.678C-82.618 501.161 -82.1946 501.527 -81.6822 501.694L-61.8613 508.15C-61.0038 508.429 -60.0654 508.1 -59.5703 507.346L-50.7172 493.866C-50.07 492.881 -48.7151 492.666 -47.795 493.404L-35.6749 503.113C-35.1023 503.572 -34.3244 503.68 -33.6482 503.396L6.98158 486.285C7.22302 486.184 7.48208 486.13 7.74404 486.129L29.4607 485.979C29.9911 485.975 30.4983 485.761 30.8708 485.384L39.9637 476.165C40.1937 475.931 40.4774 475.758 40.79 475.66L138.208 445.159C138.838 444.962 139.33 444.467 139.523 443.836L167.886 351.201C167.919 351.093 167.942 350.983 167.957 350.872L175.777 290.416L182.491 203.531C182.509 203.303 182.487 203.074 182.428 202.853L169.504 155.256C169.394 154.854 169.414 154.428 169.558 154.037L194.239 87.4275C194.444 86.8734 194.394 86.257 194.102 85.7434L182.258 64.9313C181.838 64.1937 180.999 63.8013 180.164 63.9525L161.737 67.288C160.969 67.4271 160.19 67.1064 159.742 66.4668L142.631 42.0184C142.206 41.4105 141.479 41.0881 140.743 41.1809L104.165 45.7911C103.69 45.8509 103.253 46.0791 102.932 46.4341L95.9043 54.207C94.8356 55.3892 92.881 54.9075 92.4838 53.3642L88.0096 35.9771C87.8485 35.3509 87.3946 34.8413 86.7912 34.609L63.6025 25.683C62.6757 25.3262 61.6276 25.7036 61.1408 26.5692L44.1884 56.7159C43.973 57.099 43.8898 57.5424 43.9516 57.9776L48.539 90.2482C48.6268 90.8662 48.4211 91.4897 47.9828 91.9341Z" fill="#D9D9D9"/>
<path d="M47.9828 91.9341L34.5252 105.578C34.2459 105.862 34.0574 106.222 33.9837 106.612L26.3256 147.236C26.2023 147.89 26.4126 148.563 26.8866 149.03L48.6383 170.485C49.016 170.857 49.5261 171.064 50.0565 171.061L66.2662 170.949C67.0645 170.944 67.7896 171.413 68.1109 172.144L87.8735 217.104C88.017 217.43 88.0706 217.789 88.0288 218.143L85.5672 239.002C85.5179 239.42 85.3377 239.812 85.0525 240.122L73.0003 253.215C72.8275 253.402 72.6922 253.622 72.6017 253.86L51.1577 310.411C51.1235 310.501 51.0958 310.594 51.075 310.688L37.2104 373.328C37.0088 374.239 36.2043 374.889 35.2715 374.895L7.27304 375.088C6.82575 375.091 6.3924 375.244 6.04225 375.523L-26.1451 401.11C-26.7767 401.612 -27.6481 401.686 -28.3548 401.296L-49.1288 389.85C-49.7958 389.483 -50.6137 389.526 -51.2383 389.962L-78.7702 409.17C-79.2023 409.472 -79.498 409.932 -79.5931 410.45L-82.9563 428.793C-82.9739 428.889 -82.9985 428.984 -83.03 429.076L-97.1078 470.466C-97.2787 470.969 -97.2428 471.519 -97.0079 471.995L-82.8564 500.678C-82.618 501.161 -82.1946 501.527 -81.6822 501.694L-61.8613 508.15C-61.0038 508.429 -60.0654 508.1 -59.5703 507.346L-50.7172 493.866C-50.07 492.881 -48.7151 492.666 -47.795 493.404L-35.6749 503.113C-35.1023 503.572 -34.3244 503.68 -33.6482 503.396L6.98158 486.285C7.22302 486.184 7.48208 486.13 7.74404 486.129L29.4607 485.979C29.9911 485.975 30.4983 485.761 30.8708 485.384L39.9637 476.165C40.1937 475.931 40.4774 475.758 40.79 475.66L138.208 445.159C138.838 444.962 139.33 444.467 139.523 443.836L167.886 351.201C167.919 351.093 167.942 350.983 167.957 350.872L175.777 290.416L182.491 203.531C182.509 203.303 182.487 203.074 182.428 202.853L169.504 155.256C169.394 154.854 169.414 154.428 169.558 154.037L194.239 87.4275C194.444 86.8734 194.394 86.257 194.102 85.7434L182.258 64.9313C181.838 64.1937 180.999 63.8013 180.164 63.9525L161.737 67.288C160.969 67.4271 160.19 67.1064 159.742 66.4668L142.631 42.0184C142.206 41.4105 141.479 41.0881 140.743 41.1809L104.165 45.7911C103.69 45.8509 103.253 46.0791 102.932 46.4341L95.9043 54.207C94.8356 55.3892 92.881 54.9075 92.4838 53.3642L88.0096 35.9771C87.8485 35.3509 87.3946 34.8413 86.7912 34.609L63.6025 25.683C62.6757 25.3262 61.6276 25.7036 61.1408 26.5692L44.1884 56.7159C43.973 57.099 43.8898 57.5424 43.9516 57.9776L48.539 90.2482C48.6268 90.8662 48.4211 91.4897 47.9828 91.9341Z" stroke="white" stroke-width="11"/>
</g>
<mask id="mask0_1033_10" style="mask-type:alpha" maskUnits="userSpaceOnUse" x="-99" y="22" width="297" height="491">
<path d="M49.0187 89.8067L35.3384 103.677C35.0591 103.96 34.8706 104.32 34.7969 104.711L27.0172 145.98C26.8939 146.634 27.1041 147.307 27.5781 147.774L49.6826 169.576C50.0603 169.949 50.5704 170.156 51.1008 170.152L67.5908 170.039C68.3891 170.033 69.1142 170.503 69.4355 171.234L89.5113 216.906C89.6548 217.232 89.7084 217.591 89.6666 217.945L87.1653 239.141C87.1159 239.559 86.9358 239.951 86.6505 240.261L74.4036 253.565C74.2308 253.753 74.0955 253.972 74.005 254.211L52.2306 311.632C52.1964 311.723 52.1688 311.815 52.148 311.909L38.0659 375.532C37.8643 376.443 37.0598 377.093 36.127 377.1L7.66611 377.296C7.21882 377.299 6.78546 377.452 6.43532 377.73L-26.2677 403.727C-26.8993 404.23 -27.7708 404.303 -28.4774 403.914L-49.6031 392.274C-50.2702 391.906 -51.0881 391.949 -51.7127 392.385L-79.6908 411.905C-80.123 412.207 -80.4186 412.666 -80.5137 413.185L-83.9309 431.822C-83.9485 431.918 -83.9732 432.013 -84.0046 432.106L-98.3022 474.142C-98.4731 474.644 -98.4372 475.194 -98.2023 475.671L-83.8234 504.814C-83.585 505.297 -83.1616 505.664 -82.6492 505.831L-62.4913 512.396C-61.6337 512.676 -60.6953 512.346 -60.2002 511.593L-51.1807 497.859C-50.5335 496.874 -49.1786 496.659 -48.2585 497.396L-35.9129 507.287C-35.3403 507.746 -34.5625 507.854 -33.8862 507.569L7.38633 490.188C7.62776 490.087 7.88683 490.033 8.14879 490.031L30.2158 489.88C30.7462 489.876 31.2534 489.662 31.6259 489.284L40.8718 479.91C41.1018 479.677 41.3856 479.504 41.6982 479.406L140.626 448.431C141.256 448.234 141.748 447.739 141.941 447.108L170.743 353.04C170.776 352.933 170.799 352.823 170.814 352.712L178.754 291.33L185.571 203.113C185.589 202.885 185.567 202.656 185.507 202.435L172.382 154.097C172.273 153.695 172.292 153.269 172.437 152.878L197.503 85.2286C197.708 84.6746 197.658 84.0581 197.366 83.5445L185.323 62.3834C184.904 61.6458 184.064 61.2534 183.229 61.4046L164.48 64.7984C163.712 64.9375 162.933 64.6168 162.485 63.9772L145.092 39.1244C144.666 38.5165 143.939 38.1941 143.203 38.2869L106.037 42.9711C105.562 43.031 105.125 43.2591 104.804 43.6142L97.6233 51.5563C96.5545 52.7385 94.6 52.2568 94.2028 50.7135L89.6422 32.9906C89.4811 32.3645 89.0272 31.8548 88.4238 31.6226L64.8417 22.5451C63.9149 22.1884 62.8667 22.5657 62.38 23.4313L45.1507 54.0704C44.9352 54.4535 44.852 54.897 44.9139 55.3321L49.5749 88.1207C49.6627 88.7387 49.457 89.3623 49.0187 89.8067Z" fill="#D9D9D9"/>
</mask>
<g mask="url(#mask0_1033_10)">
</g>
<defs>
<filter id="filter0_dd_1033_10" x="-176.714" y="0.0484161" width="450.578" height="641.701" filterUnits="userSpaceOnUse" color-interpolation-filters="sRGB">
<feFlood flood-opacity="0" result="BackgroundImageFix"/>
<feColorMatrix in="SourceAlpha" type="matrix" values="0 0 0 0 0 0 0 0 0 0 0 0 0 0 0 0 0 0 127 0" result="hardAlpha"/>
<feOffset dy="4"/>
<feGaussianBlur stdDeviation="2"/>
<feComposite in2="hardAlpha" operator="out"/>
<feColorMatrix type="matrix" values="0 0 0 0 0 0 0 0 0 0 0 0 0 0 0 0 0 0 0.25 0"/>
<feBlend mode="normal" in2="BackgroundImageFix" result="effect1_dropShadow_1033_10"/>
<feColorMatrix in="SourceAlpha" type="matrix" values="0 0 0 0 0 0 0 0 0 0 0 0 0 0 0 0 0 0 127 0" result="hardAlpha"/>
<feOffset dy="54"/>
<feGaussianBlur stdDeviation="37"/>
<feComposite in2="hardAlpha" operator="out"/>
<feColorMatrix type="matrix" values="0 0 0 0 0 0 0 0 0 0 0 0 0 0 0 0 0 0 0.11 0"/>
<feBlend mode="normal" in2="effect1_dropShadow_1033_10" result="effect2_dropShadow_1033_10"/>
<feBlend mode="normal" in="SourceGraphic" in2="effect2_dropShadow_1033_10" result="shape"/>
</filter>
</defs>
</svg>
