<svg width="364" height="120" viewBox="0 0 364 120" fill="none" xmlns="http://www.w3.org/2000/svg">
<path d="M19.3668 92.9211H5.65578C4.05616 92.9211 2.68507 92.4069 1.54249 91.3786C0.514162 90.236 0 88.8649 0 87.2653V5.85635C0 4.25673 0.514162 2.88564 1.54249 1.74306C2.68507 0.600468 4.05616 0.0291748 5.65578 0.0291748H19.3668C20.9664 0.0291748 22.2803 0.600468 23.3087 1.74306C24.4512 2.88564 25.0225 4.25673 25.0225 5.85635V45.4468H13.5396V11.5121H11.4829V81.4381H13.5396V47.5034H25.0225V87.2653C25.0225 88.8649 24.4512 90.236 23.3087 91.3786C22.2803 92.4069 20.9664 92.9211 19.3668 92.9211Z" fill="white"/>
<path d="M52.1365 92.9211H32.7698C31.1702 92.9211 29.7991 92.4069 28.6565 91.3786C27.6282 90.236 27.114 88.8649 27.114 87.2653V46.4751C27.114 44.8755 27.6282 43.5615 28.6565 42.5332C29.7991 41.3906 31.1702 40.8193 32.7698 40.8193H40.6536V11.5121H38.5969V38.7627H27.114V5.85635C27.114 4.25673 27.6282 2.88564 28.6565 1.74306C29.7991 0.600468 31.1702 0.0291748 32.7698 0.0291748H46.4808C48.0804 0.0291748 49.3943 0.600468 50.4227 1.74306C51.5652 2.88564 52.1365 4.25673 52.1365 5.85635V92.9211ZM38.5969 81.4381H40.6536V52.3023H38.5969V81.4381Z" fill="white"/>
<path d="M79.2505 92.9211H67.7676V11.5121H65.7109V92.9211H54.228V0.0291748H73.5947C75.1944 0.0291748 76.5083 0.600468 77.5367 1.74306C78.6792 2.77138 79.2505 4.08535 79.2505 5.68496V92.9211Z" fill="white"/>
<path d="M108.439 0.0291748H119.922V114.344C119.922 115.944 119.35 117.258 118.208 118.286C117.065 119.429 115.694 120 114.094 120H100.555C98.9551 120 97.5841 119.429 96.4415 118.286C95.4131 117.258 94.899 115.944 94.899 114.344V94.9777H106.382V108.517H108.439V92.9211H100.555C98.9551 92.9211 97.5841 92.4069 96.4415 91.3786C95.4131 90.236 94.899 88.8649 94.899 87.2653V0.0291748H106.382V81.4381H108.439V0.0291748Z" fill="white"/>
<path d="M147.036 87.2653C147.036 88.8649 146.464 90.236 145.322 91.3786C144.179 92.4069 142.808 92.9211 141.208 92.9211H127.669C126.069 92.9211 124.698 92.4069 123.555 91.3786C122.527 90.236 122.013 88.8649 122.013 87.2653V5.85635C122.013 4.25673 122.527 2.88564 123.555 1.74306C124.698 0.600468 126.069 0.0291748 127.669 0.0291748H141.208C142.808 0.0291748 144.179 0.600468 145.322 1.74306C146.464 2.88564 147.036 4.25673 147.036 5.85635V87.2653ZM135.553 11.5121H133.496V81.4381H135.553V11.5121Z" fill="white"/>
<path d="M162.667 0.0291748H174.15V87.2653C174.15 88.8649 173.578 90.236 172.436 91.3786C171.293 92.4069 169.922 92.9211 168.322 92.9211H154.783C153.183 92.9211 151.812 92.4069 150.669 91.3786C149.641 90.236 149.127 88.8649 149.127 87.2653V0.0291748H160.61V81.4381H162.667V0.0291748Z" fill="white"/>
<path d="M249.836 92.9211H236.125C234.525 92.9211 233.154 92.4069 232.011 91.3786C230.983 90.236 230.469 88.8649 230.469 87.2653V54.3589H241.952V81.4381H244.009V52.3023H236.125C234.525 52.3023 233.154 51.731 232.011 50.5884C230.983 49.4458 230.469 48.0747 230.469 46.4751V5.85635C230.469 4.25673 230.983 2.88564 232.011 1.74306C233.154 0.600468 234.525 0.0291748 236.125 0.0291748H249.836C251.435 0.0291748 252.749 0.600468 253.778 1.74306C254.92 2.88564 255.492 4.25673 255.492 5.85635V38.7627H244.009V11.5121H241.952V40.8193H249.836C251.435 40.8193 252.749 41.3906 253.778 42.5332C254.92 43.5615 255.492 44.8755 255.492 46.4751V87.2653C255.492 88.8649 254.92 90.236 253.778 91.3786C252.749 92.4069 251.435 92.9211 249.836 92.9211Z" fill="white"/>
<path d="M276.95 92.9211H263.239C261.639 92.9211 260.268 92.4069 259.125 91.3786C258.097 90.236 257.583 88.8649 257.583 87.2653V5.85635C257.583 4.25673 258.097 2.88564 259.125 1.74306C260.268 0.600468 261.639 0.0291748 263.239 0.0291748H276.95C278.549 0.0291748 279.863 0.600468 280.892 1.74306C282.034 2.88564 282.605 4.25673 282.605 5.85635V45.4468H271.123V11.5121H269.066V81.4381H271.123V47.5034H282.605V87.2653C282.605 88.8649 282.034 90.236 280.892 91.3786C279.863 92.4069 278.549 92.9211 276.95 92.9211Z" fill="white"/>
<path d="M309.719 87.2653C309.719 88.8649 309.148 90.236 308.006 91.3786C306.863 92.4069 305.492 92.9211 303.892 92.9211H290.353C288.753 92.9211 287.382 92.4069 286.239 91.3786C285.211 90.236 284.697 88.8649 284.697 87.2653V5.85635C284.697 4.25673 285.211 2.88564 286.239 1.74306C287.382 0.600468 288.753 0.0291748 290.353 0.0291748H303.892C305.492 0.0291748 306.863 0.600468 308.006 1.74306C309.148 2.88564 309.719 4.25673 309.719 5.85635V87.2653ZM298.237 11.5121H296.18V81.4381H298.237V11.5121Z" fill="white"/>
<path d="M323.294 92.9211H311.811V0.0291748H331.178C332.777 0.0291748 334.091 0.600468 335.12 1.74306C336.262 2.88564 336.833 4.25673 336.833 5.85635V38.7627H325.351V11.5121H323.294V92.9211Z" fill="white"/>
<path d="M358.292 92.9211H344.581C342.981 92.9211 341.61 92.4069 340.467 91.3786C339.439 90.236 338.925 88.8649 338.925 87.2653V5.85635C338.925 4.25673 339.439 2.88564 340.467 1.74306C341.61 0.600468 342.981 0.0291748 344.581 0.0291748H358.292C359.891 0.0291748 361.205 0.600468 362.234 1.74306C363.376 2.88564 363.947 4.25673 363.947 5.85635V52.3023H350.408V81.4381H352.465V54.3589H363.947V87.2653C363.947 88.8649 363.376 90.236 362.234 91.3786C361.205 92.4069 359.891 92.9211 358.292 92.9211ZM350.408 40.8193H352.465V11.5121H350.408V40.8193Z" fill="white"/>
<rect x="158" y="15.7291" width="75.3497" height="75.3497" rx="37.6749" transform="rotate(-10.4982 158 15.7291)" fill="#FF3115"/>
<circle cx="201.58" cy="45.2769" r="31.0385" stroke="black" stroke-width="4"/>
<line x1="178.622" y1="68.4236" x2="224.895" y2="22.1502" stroke="black" stroke-width="4"/>
<line x1="178.4" y1="20.0853" x2="224.674" y2="66.3587" stroke="black" stroke-width="4"/>
<path d="M168.541 43.168C185.004 51.9742 203.818 31.4264 195.352 14.3033" stroke="black" stroke-width="4"/>
<path d="M234.375 47.8291C217.318 38.6401 197.235 58.9348 205.764 76.3307" stroke="black" stroke-width="4"/>
</svg>
